<?xml version="1.0" encoding="utf-8" ?>
<svg xmlns="http://www.w3.org/2000/svg" xmlns:ev="http://www.w3.org/2001/xml-events" xmlns:xlink="http://www.w3.org/1999/xlink" baseProfile="full" height="11.024in" id="root" image-rendering="pixelated" version="1.1" viewBox="0 0 2539 1653" width="16.929in">
  <defs/>
  <g id="Plane"/>
  <g id="Cube.004"/>
  <g fill="none" id="Line 1_dashed_lines" stroke="rgb(0%,0%,0%)" stroke-linecap="round" stroke-width="2.0">
    <line stroke-linecap="round" x1="641.0971912741661" x2="640.1899307966232" y1="1478.8502754047513" y2="1478.4217221736908"/>
    <line stroke-linecap="round" x1="475.07790672779083" x2="475.07790672779083" y1="1183.7062181532383" y2="1184.7096118032932"/>
    <line stroke-linecap="round" x1="298.95216420292854" x2="464.97141091525555" y1="1474.3501401096582" y2="1552.7739096544683"/>
    <line stroke-linecap="round" x1="464.97141091525555" x2="641.0971912741661" y1="1552.7739096544683" y2="1478.8502754047513"/>
    <line stroke-linecap="round" x1="383.57111555337906" x2="364.7416015714407" y1="1222.1135634183884" y2="1232.6273238658905"/>
    <line stroke-linecap="round" x1="364.7416015714407" x2="346.8562740981579" y1="1232.6273238658905" y2="1247.8349103480577"/>
    <line stroke-linecap="round" x1="466.7995899617672" x2="467.72024369239807" y1="1331.2113411426544" y2="1304.928294762969"/>
    <line stroke-linecap="round" x1="346.8562740981579" x2="330.8120270818472" y1="1247.8349103480577" y2="1266.973900347948"/>
    <line stroke-linecap="round" x1="466.0307264328003" x2="466.7995899617672" y1="1359.2879881560802" y2="1331.2113411426544"/>
    <line stroke-linecap="round" x1="330.8120270818472" x2="317.41328805685043" y1="1266.973900347948" y2="1289.0844735503197"/>
    <line stroke-linecap="round" x1="465.4523195028305" x2="466.0307264328003" y1="1387.7504402250051" y2="1359.2879881560802"/>
    <line stroke-linecap="round" x1="317.41328805685043" x2="307.33204647153616" y1="1289.0844735503197" y2="1313.057985395193"/>
    <line stroke-linecap="round" x1="465.0931987166405" x2="465.4523195028305" y1="1415.1714427918196" y2="1387.7504402250051"/>
    <line stroke-linecap="round" x1="307.33204647153616" x2="301.0737462937832" y1="1313.057985395193" y2="1337.6923389583826"/>
    <line stroke-linecap="round" x1="464.97141091525555" x2="465.0931987166405" y1="1440.1760095953941" y2="1415.1714427918196"/>
    <line stroke-linecap="round" x1="301.0737462937832" x2="298.95216420292854" y1="1337.6923389583826" y2="1361.7522338926792"/>
    <line stroke-linecap="round" x1="579.082948744297" x2="561.3339373469353" y1="1235.4465112388134" y2="1224.4516460001469"/>
    <line stroke-linecap="round" x1="595.9419141560793" x2="579.082948744297" y1="1251.1110142618418" y2="1235.4465112388134"/>
    <line stroke-linecap="round" x1="611.0655074417591" x2="595.9419141560793" y1="1270.6599975675344" y2="1251.1110142618418"/>
    <line stroke-linecap="round" x1="623.6953451037407" x2="611.0655074417591" y1="1293.1129256486893" y2="1270.6599975675344"/>
    <line stroke-linecap="round" x1="633.1981230080128" x2="623.6953451037407" y1="1317.3440349698067" y2="1293.1129256486893"/>
    <line stroke-linecap="round" x1="639.0973591506481" x2="633.1981230080128" y1="1342.1382723748684" y2="1317.3440349698067"/>
    <line stroke-linecap="round" x1="641.0971912741661" x2="639.0973591506481" y1="1366.2523568719625" y2="1342.1382723748684"/>
    <line stroke-linecap="round" x1="475.07790672779083" x2="561.3339373469353" y1="1183.7062181532383" y2="1224.4516460001469"/>
    <line stroke-linecap="round" x1="641.0971912741661" x2="641.0971912741661" y1="1366.2523568719625" y2="1478.8502754047513"/>
    <line stroke-linecap="round" x1="464.97141091525555" x2="464.97141091525555" y1="1440.1760095953941" y2="1552.7739096544683"/>
    <line stroke-linecap="round" x1="475.07790672779083" x2="383.57111555337906" y1="1183.7062181532383" y2="1222.1135634183884"/>
    <line stroke-linecap="round" x1="298.95216420292854" x2="298.95216420292854" y1="1361.7522338926792" y2="1474.3501401096582"/>
  </g>
  <g fill="none" id="Line 1_dashed_lines" stroke="rgb(20%,20%,20%)" stroke-dasharray="10,10" stroke-linecap="butt" stroke-width="1.0">
    <line stroke-linecap="round" x1="475.07790672779083" x2="298.95216420292854" y1="1400.426561281085" y2="1474.3501401096582"/>
    <line stroke-linecap="round" x1="640.1899307966232" x2="475.07790672779083" y1="1478.4217221736908" y2="1400.426561281085"/>
    <line stroke-linecap="round" x1="475.07790672779083" x2="475.07790672779083" y1="1184.7096118032932" y2="1400.426561281085"/>
  </g>
  <g fill="none" id="Line 2_dashed_lines" stroke="rgb(0%,0%,0%)" stroke-linecap="round" stroke-width="4.0">
    <line stroke-linecap="round" x1="298.95216420292854" x2="464.97141091525555" y1="1474.3501401096582" y2="1552.7739096544683"/>
    <line stroke-linecap="round" x1="464.97141091525555" x2="641.0971912741661" y1="1552.7739096544683" y2="1478.8502754047513"/>
    <line stroke-linecap="round" x1="383.57111555337906" x2="364.7416015714407" y1="1222.1135634183884" y2="1232.6273238658905"/>
    <line stroke-linecap="round" x1="364.7416015714407" x2="346.8562740981579" y1="1232.6273238658905" y2="1247.8349103480577"/>
    <line stroke-linecap="round" x1="346.8562740981579" x2="330.8120270818472" y1="1247.8349103480577" y2="1266.973900347948"/>
    <line stroke-linecap="round" x1="330.8120270818472" x2="317.41328805685043" y1="1266.973900347948" y2="1289.0844735503197"/>
    <line stroke-linecap="round" x1="317.41328805685043" x2="307.33204647153616" y1="1289.0844735503197" y2="1313.057985395193"/>
    <line stroke-linecap="round" x1="307.33204647153616" x2="301.0737462937832" y1="1313.057985395193" y2="1337.6923389583826"/>
    <line stroke-linecap="round" x1="301.0737462937832" x2="298.95216420292854" y1="1337.6923389583826" y2="1361.7522338926792"/>
    <line stroke-linecap="round" x1="579.082948744297" x2="561.3339373469353" y1="1235.4465112388134" y2="1224.4516460001469"/>
    <line stroke-linecap="round" x1="595.9419141560793" x2="579.082948744297" y1="1251.1110142618418" y2="1235.4465112388134"/>
    <line stroke-linecap="round" x1="611.0655074417591" x2="595.9419141560793" y1="1270.6599975675344" y2="1251.1110142618418"/>
    <line stroke-linecap="round" x1="623.6953451037407" x2="611.0655074417591" y1="1293.1129256486893" y2="1270.6599975675344"/>
    <line stroke-linecap="round" x1="633.1981230080128" x2="623.6953451037407" y1="1317.3440349698067" y2="1293.1129256486893"/>
    <line stroke-linecap="round" x1="639.0973591506481" x2="633.1981230080128" y1="1342.1382723748684" y2="1317.3440349698067"/>
    <line stroke-linecap="round" x1="641.0971912741661" x2="639.0973591506481" y1="1366.2523568719625" y2="1342.1382723748684"/>
    <line stroke-linecap="round" x1="475.07790672779083" x2="561.3339373469353" y1="1183.7062181532383" y2="1224.4516460001469"/>
    <line stroke-linecap="round" x1="641.0971912741661" x2="641.0971912741661" y1="1366.2523568719625" y2="1478.8502754047513"/>
    <line stroke-linecap="round" x1="475.07790672779083" x2="383.57111555337906" y1="1183.7062181532383" y2="1222.1135634183884"/>
    <line stroke-linecap="round" x1="298.95216420292854" x2="298.95216420292854" y1="1361.7522338926792" y2="1474.3501401096582"/>
  </g>
  <g fill="none" id="Line 2_dashed_lines" stroke="rgb(0%,0%,0%)" stroke-dasharray="5,5" stroke-linecap="butt" stroke-width="4.0"/>
  <g id="Cube.002"/>
  <g fill="none" id="Line 1_dashed_lines" stroke="rgb(0%,0%,0%)" stroke-linecap="round" stroke-width="2.0">
    <line stroke-linecap="round" x1="1728.188197016716" x2="1727.2809365391731" y1="929.8726996779442" y2="929.4441587626934"/>
    <line stroke-linecap="round" x1="1728.188197016716" x2="1728.188197016716" y1="713.1523811817169" y2="929.8726996779442"/>
    <line stroke-linecap="round" x1="1386.043245613575" x2="1386.043245613575" y1="783.9023728966713" y2="708.652282834053"/>
    <line stroke-linecap="round" x1="1552.0625301599503" x2="1552.0625301599503" y1="787.076009273529" y2="1003.7962785065174"/>
    <line stroke-linecap="round" x1="1562.1690638065338" x2="1562.1690638065338" y1="634.7286547422409" y2="635.7320483922958"/>
    <line stroke-linecap="round" x1="1552.0625301599503" x2="1386.043245613575" y1="787.076009273529" y2="708.652282834053"/>
    <line stroke-linecap="round" x1="1728.188197016716" x2="1552.0625301599503" y1="713.1523811817169" y2="787.076009273529"/>
    <line stroke-linecap="round" x1="1467.6921485066414" x2="1552.0625301599503" y1="963.9416285455227" y2="1003.7962785065174"/>
    <line stroke-linecap="round" x1="1386.043245613575" x2="1562.1690638065338" y1="708.652282834053" y2="634.7286547422409"/>
    <line stroke-linecap="round" x1="1562.1690638065338" x2="1728.188197016716" y1="634.7286547422409" y2="713.1523811817169"/>
    <line stroke-linecap="round" x1="1552.0625301599503" x2="1728.188197016716" y1="1003.7962785065174" y2="929.8726996779442"/>
  </g>
  <g fill="none" id="Line 1_dashed_lines" stroke="rgb(20%,20%,20%)" stroke-dasharray="10,10" stroke-linecap="butt" stroke-width="1.0">
    <line stroke-linecap="round" x1="1562.1690638065338" x2="1386.043245613575" y1="851.4489239752293" y2="925.3725520670414"/>
    <line stroke-linecap="round" x1="1727.2809365391731" x2="1562.1690638065338" y1="929.4441587626934" y2="851.4489239752293"/>
    <line stroke-linecap="round" x1="1386.043245613575" x2="1386.043245613575" y1="925.3725520670414" y2="783.9023728966713"/>
    <line stroke-linecap="round" x1="1562.1690638065338" x2="1562.1690638065338" y1="635.7320483922958" y2="851.4489239752293"/>
    <line stroke-linecap="round" x1="1386.043245613575" x2="1467.6921485066414" y1="925.3725520670414" y2="963.9416285455227"/>
  </g>
  <g fill="none" id="Line 2_dashed_lines" stroke="rgb(0%,0%,0%)" stroke-linecap="round" stroke-width="4.0">
    <line stroke-linecap="round" x1="1728.188197016716" x2="1728.188197016716" y1="713.1523811817169" y2="929.8726996779442"/>
    <line stroke-linecap="round" x1="1386.043245613575" x2="1386.043245613575" y1="783.9023728966713" y2="708.652282834053"/>
    <line stroke-linecap="round" x1="1467.6921485066414" x2="1552.0625301599503" y1="963.9416285455227" y2="1003.7962785065174"/>
    <line stroke-linecap="round" x1="1386.043245613575" x2="1562.1690638065338" y1="708.652282834053" y2="634.7286547422409"/>
    <line stroke-linecap="round" x1="1562.1690638065338" x2="1728.188197016716" y1="634.7286547422409" y2="713.1523811817169"/>
    <line stroke-linecap="round" x1="1552.0625301599503" x2="1728.188197016716" y1="1003.7962785065174" y2="929.8726996779442"/>
  </g>
  <g fill="none" id="Line 2_dashed_lines" stroke="rgb(0%,0%,0%)" stroke-dasharray="5,5" stroke-linecap="butt" stroke-width="4.0"/>
  <g id="Cube"/>
  <g fill="none" id="Line 1_dashed_lines" stroke="rgb(0%,0%,0%)" stroke-linecap="round" stroke-width="2.0">
    <line stroke-linecap="round" x1="184.58728958666325" x2="183.66514141112566" y1="890.317126840353" y2="890.7041881084442"/>
    <line stroke-linecap="round" x1="525.8102252334356" x2="524.9029269218445" y1="895.2042864561081" y2="894.7757455408573"/>
    <line stroke-linecap="round" x1="525.8102252334356" x2="525.8102252334356" y1="678.4840664863586" y2="895.2042864561081"/>
    <line stroke-linecap="round" x1="183.66514141112566" x2="183.66514141112566" y1="890.7041881084442" y2="673.9839681386948"/>
    <line stroke-linecap="round" x1="349.6843692064285" x2="349.6843692064285" y1="752.4076945781708" y2="969.1279638111591"/>
    <line stroke-linecap="round" x1="359.7909028530121" x2="359.7909028530121" y1="600.0603400468826" y2="601.0636351704597"/>
    <line stroke-linecap="round" x1="349.6843692064285" x2="183.66514141112566" y1="752.4076945781708" y2="673.9839681386948"/>
    <line stroke-linecap="round" x1="525.8102252334356" x2="349.6843692064285" y1="678.4840664863586" y2="752.4076945781708"/>
    <line stroke-linecap="round" x1="183.66514141112566" x2="349.6843692064285" y1="890.7041881084442" y2="969.1279638111591"/>
    <line stroke-linecap="round" x1="183.66514141112566" x2="359.7909028530121" y1="673.9839681386948" y2="600.0603400468826"/>
    <line stroke-linecap="round" x1="359.7909028530121" x2="525.8102252334356" y1="600.0603400468826" y2="678.4840664863586"/>
    <line stroke-linecap="round" x1="349.6843692064285" x2="525.8102252334356" y1="969.1279638111591" y2="895.2042864561081"/>
  </g>
  <g fill="none" id="Line 1_dashed_lines" stroke="rgb(20%,20%,20%)" stroke-dasharray="10,10" stroke-linecap="butt" stroke-width="1.0">
    <line stroke-linecap="round" x1="359.7909028530121" x2="184.58728958666325" y1="816.7805600166321" y2="890.317126840353"/>
    <line stroke-linecap="round" x1="524.9029269218445" x2="359.7909028530121" y1="894.7757455408573" y2="816.7805600166321"/>
    <line stroke-linecap="round" x1="359.7909028530121" x2="359.7909028530121" y1="601.0636351704597" y2="816.7805600166321"/>
  </g>
  <g fill="none" id="Line 2_dashed_lines" stroke="rgb(0%,0%,0%)" stroke-linecap="round" stroke-width="4.0">
    <line stroke-linecap="round" x1="525.8102252334356" x2="525.8102252334356" y1="678.4840664863586" y2="895.2042864561081"/>
    <line stroke-linecap="round" x1="183.66514141112566" x2="183.66514141112566" y1="890.7041881084442" y2="673.9839681386948"/>
    <line stroke-linecap="round" x1="183.66514141112566" x2="349.6843692064285" y1="890.7041881084442" y2="969.1279638111591"/>
    <line stroke-linecap="round" x1="183.66514141112566" x2="359.7909028530121" y1="673.9839681386948" y2="600.0603400468826"/>
    <line stroke-linecap="round" x1="359.7909028530121" x2="525.8102252334356" y1="600.0603400468826" y2="678.4840664863586"/>
    <line stroke-linecap="round" x1="349.6843692064285" x2="525.8102252334356" y1="969.1279638111591" y2="895.2042864561081"/>
  </g>
  <g fill="none" id="Line 2_dashed_lines" stroke="rgb(0%,0%,0%)" stroke-dasharray="5,5" stroke-linecap="butt" stroke-width="4.0"/>
  <g id="Cube.001"/>
  <g fill="none" id="Line 1_dashed_lines" stroke="rgb(0%,0%,0%)" stroke-linecap="round" stroke-width="2.0">
    <line stroke-linecap="round" x1="1077.4380266666412" x2="1077.4380266666412" y1="795.6407189369202" y2="796.6440140604973"/>
    <line stroke-linecap="round" x1="1077.4380266666412" x2="1077.4380266666412" y1="904.0008289217949" y2="1007.3442662358284"/>
    <line stroke-linecap="round" x1="1077.4380266666412" x2="1076.530841857195" y1="795.6407189369202" y2="795.2121287584305"/>
    <line stroke-linecap="round" x1="1075.6236570477486" x2="1074.7163965702057" y1="794.7836371064186" y2="794.3550469279289"/>
    <line stroke-linecap="round" x1="1073.8092117607594" x2="1072.902026951313" y1="793.9264567494392" y2="793.4979650974274"/>
    <line stroke-linecap="round" x1="1064.7371366620064" x2="1063.82995185256" y1="789.6410475969315" y2="789.2125559449196"/>
    <line stroke-linecap="round" x1="1062.9226913750172" x2="1062.0155065655708" y1="788.7839657664299" y2="788.3553755879402"/>
    <line stroke-linecap="round" x1="1054.757876753807" x2="1053.8506162762642" y1="784.927048265934" y2="784.4985566139221"/>
    <line stroke-linecap="round" x1="1045.6857259869576" x2="1044.7785411775112" y1="780.6416391134262" y2="780.2130489349365"/>
    <line stroke-linecap="round" x1="1043.8713563680649" x2="1042.964095890522" y1="779.7845572829247" y2="779.355967104435"/>
    <line stroke-linecap="round" x1="1035.7064660787582" x2="1034.799281269312" y1="775.9276397824287" y2="775.499049603939"/>
    <line stroke-linecap="round" x1="1032.9848359823227" x2="1032.0776511728764" y1="774.6419677734375" y2="774.2134761214256"/>
    <line stroke-linecap="round" x1="1026.6343909800053" x2="1025.7271305024624" y1="771.6421321034431" y2="771.2136404514313"/>
    <line stroke-linecap="round" x1="1024.819945693016" x2="1023.9127608835697" y1="770.7850502729416" y2="770.3565586209297"/>
    <line stroke-linecap="round" x1="1015.7478705942631" x2="1014.8406857848167" y1="766.4996411204338" y2="766.0710509419441"/>
    <line stroke-linecap="round" x1="1013.9334253072739" x2="1013.0262404978275" y1="765.6425592899323" y2="765.2139691114426"/>
    <line stroke-linecap="round" x1="1007.5829803049564" x2="1006.6757954955101" y1="762.6427236199379" y2="762.2141334414482"/>
    <line stroke-linecap="round" x1="1005.7685350179672" x2="1004.8613502085209" y1="761.7856417894363" y2="761.3570516109467"/>
    <line stroke-linecap="round" x1="1003.9541653990746" x2="1003.0469049215317" y1="760.9285599589348" y2="760.4999697804451"/>
    <line stroke-linecap="round" x1="996.6964599192142" x2="995.7892751097679" y1="757.5001341104507" y2="757.0716424584389"/>
    <line stroke-linecap="round" x1="994.8820903003216" x2="993.9748298227787" y1="756.6430522799492" y2="756.2145606279373"/>
    <line stroke-linecap="round" x1="986.7172000110149" x2="985.8099395334721" y1="752.7861347794533" y2="752.3576431274414"/>
    <line stroke-linecap="round" x1="984.9027547240257" x2="983.0883094370365" y1="751.9290529489517" y2="751.0719711184502"/>
    <line stroke-linecap="round" x1="977.6450492441654" x2="976.7378644347191" y1="748.5007256269455" y2="748.0721354484558"/>
    <line stroke-linecap="round" x1="975.8306796252728" x2="974.9234948158264" y1="747.6436437964439" y2="747.2150536179543"/>
    <line stroke-linecap="round" x1="967.6657893359661" x2="966.7586045265198" y1="743.786726295948" y2="743.3582346439362"/>
    <line stroke-linecap="round" x1="965.8513440489769" x2="964.0369744300842" y1="742.9296444654465" y2="742.0725626349449"/>
    <line stroke-linecap="round" x1="958.5937142372131" x2="957.6865294277668" y1="739.5013171434402" y2="739.0727269649506"/>
    <line stroke-linecap="round" x1="956.7792689502239" x2="955.8720841407776" y1="738.6442353129387" y2="738.215645134449"/>
    <line stroke-linecap="round" x1="954.9648236632347" x2="954.0576388537884" y1="737.7870549559593" y2="737.3585633039474"/>
    <line stroke-linecap="round" x1="946.8000090420246" x2="944.9855637550354" y1="733.9302359819412" y2="733.0731541514397"/>
    <line stroke-linecap="round" x1="939.5423035621643" x2="938.635118752718" y1="730.5018101334572" y2="730.0733184814453"/>
    <line stroke-linecap="round" x1="937.7279339432716" x2="936.8206734657288" y1="729.6447283029556" y2="729.2162366509438"/>
    <line stroke-linecap="round" x1="935.9134886562824" x2="935.0063038468361" y1="728.7876464724541" y2="728.3591548204422"/>
    <line stroke-linecap="round" x1="927.7485983669758" x2="925.9342287480831" y1="724.9307289719582" y2="724.0736471414566"/>
    <line stroke-linecap="round" x1="918.6765232682228" x2="917.7692627906799" y1="720.6453198194504" y2="720.2167296409607"/>
    <line stroke-linecap="round" x1="916.8620779812336" x2="915.9548931717873" y1="719.7882379889488" y2="719.3596478104591"/>
    <line stroke-linecap="round" x1="1246.1868107914925" x2="1245.2646436989307" y1="724.813383936882" y2="725.2003959417343"/>
    <line stroke-linecap="round" x1="1244.3425522744656" x2="1243.4204608500004" y1="725.5874079465866" y2="725.9744199514389"/>
    <line stroke-linecap="round" x1="1234.1991682648659" x2="1233.2770768404007" y1="729.8448355793953" y2="730.2318475842476"/>
    <line stroke-linecap="round" x1="1232.354909747839" x2="1231.4328183233738" y1="730.6188595890999" y2="731.0058715939522"/>
    <line stroke-linecap="round" x1="1222.2116014063358" x2="1221.289434313774" y1="734.8762872219086" y2="735.2632992267609"/>
    <line stroke-linecap="round" x1="1220.367342889309" x2="1219.4451757967472" y1="735.6503112316132" y2="736.0373232364655"/>
    <line stroke-linecap="round" x1="1211.1460503041744" x2="1209.301867455244" y1="739.5206283330917" y2="740.2947508692741"/>
    <line stroke-linecap="round" x1="1208.3797003626823" x2="1207.4576089382172" y1="740.6817628741264" y2="741.0687748789787"/>
    <line stroke-linecap="round" x1="1201.0027419626713" x2="1200.0805748701096" y1="743.7780559659004" y2="744.1650679707527"/>
    <line stroke-linecap="round" x1="1199.1584834456444" x2="1197.3142249286175" y1="744.552079975605" y2="745.3262025117874"/>
    <line stroke-linecap="round" x1="1196.3921335041523" x2="1195.4699664115906" y1="745.7132145166397" y2="746.100226521492"/>
    <line stroke-linecap="round" x1="1189.0150994360447" x2="1188.0930080115795" y1="748.8095076084137" y2="749.196519613266"/>
    <line stroke-linecap="round" x1="1187.1708409190178" x2="1185.326582401991" y1="749.5835316181183" y2="750.3576541543007"/>
    <line stroke-linecap="round" x1="1177.027456909418" x2="1176.105365484953" y1="753.840959250927" y2="754.2279712557793"/>
    <line stroke-linecap="round" x1="1175.1832740604877" x2="1174.261106967926" y1="754.6149832606316" y2="755.0020937919617"/>
    <line stroke-linecap="round" x1="1165.039890050888" x2="1164.1177229583263" y1="758.8724108934402" y2="759.2594228982925"/>
    <line stroke-linecap="round" x1="1163.1956315338612" x2="1162.2734644412994" y1="759.6464349031448" y2="760.033545434475"/>
    <line stroke-linecap="round" x1="1153.0522475242615" x2="1152.1301560997963" y1="763.9038625359535" y2="764.2908745408058"/>
    <line stroke-linecap="round" x1="1151.2079890072346" x2="1150.2858975827694" y1="764.6778865456581" y2="765.0649970769882"/>
    <line stroke-linecap="round" x1="1141.064604997635" x2="1140.1425135731697" y1="768.9353141784668" y2="769.3223261833191"/>
    <line stroke-linecap="round" x1="1139.2204221487045" x2="1138.2982550561428" y1="769.7093381881714" y2="770.0964487195015"/>
    <line stroke-linecap="round" x1="1129.0770381391048" x2="1128.1548710465431" y1="773.9667658209801" y2="774.3537778258324"/>
    <line stroke-linecap="round" x1="1127.232779622078" x2="1126.3106125295162" y1="774.7407898306847" y2="775.127801835537"/>
    <line stroke-linecap="round" x1="1125.388521105051" x2="1124.4664296805859" y1="775.5149123668671" y2="775.9019243717194"/>
    <line stroke-linecap="round" x1="1118.01156270504" x2="1116.167304188013" y1="778.611205458641" y2="779.3852294683456"/>
    <line stroke-linecap="round" x1="1115.2451370954514" x2="1114.3230456709862" y1="779.7722414731979" y2="780.1592534780502"/>
    <line stroke-linecap="round" x1="1113.4008785784245" x2="1112.4787871539593" y1="780.5463640093803" y2="780.9333760142326"/>
    <line stroke-linecap="round" x1="1106.0239201784134" x2="1105.1018287539482" y1="783.6426571011543" y2="784.0296691060066"/>
    <line stroke-linecap="round" x1="1103.2575702369213" x2="1102.3354031443596" y1="784.8036931157112" y2="785.1907051205635"/>
    <line stroke-linecap="round" x1="1101.4133117198944" x2="1100.4911446273327" y1="785.5778156518936" y2="785.9648276567459"/>
    <line stroke-linecap="round" x1="1094.0363533198833" x2="1093.1141862273216" y1="788.6740102171898" y2="789.0611207485199"/>
    <line stroke-linecap="round" x1="1091.2699277102947" x2="1090.3478362858295" y1="789.8351447582245" y2="790.2221567630768"/>
    <line stroke-linecap="round" x1="1089.4256691932678" x2="1088.5035777688026" y1="790.6092672944069" y2="790.9962792992592"/>
    <line stroke-linecap="round" x1="1082.0487107932568" x2="1081.126543700695" y1="793.7054618597031" y2="794.0925723910332"/>
    <line stroke-linecap="round" x1="1079.2822851836681" x2="1078.360193759203" y1="794.8665964007378" y2="795.2536084055901"/>
    <line stroke-linecap="round" x1="1467.3617815971375" x2="1467.3617815971375" y1="822.7103760838509" y2="1039.4306453168392"/>
    <line stroke-linecap="round" x1="1291.2359634041786" x2="1291.2359634041786" y1="896.634004175663" y2="1113.3542241454124"/>
    <line stroke-linecap="round" x1="1467.3617815971375" x2="1291.2359634041786" y1="822.7103760838509" y2="896.634004175663"/>
    <line stroke-linecap="round" x1="1291.2359634041786" x2="1467.3617815971375" y1="1113.3542241454124" y2="1039.4306453168392"/>
    <line stroke-linecap="round" x1="1077.4380266666412" x2="1291.2359634041786" y1="1012.3608896434307" y2="1113.3542241454124"/>
    <line stroke-linecap="round" x1="1291.2359634041786" x2="1077.4380266666412" y1="896.634004175663" y2="795.6407189369202"/>
    <line stroke-linecap="round" x1="1254.4697433114052" x2="1467.3617815971375" y1="722.144991338253" y2="822.7103760838509"/>
    <line stroke-linecap="round" x1="1467.3617815971375" x2="1466.4557318091393" y1="1039.4306453168392" y2="1039.0026955604553"/>
    <line stroke-linecap="round" x1="786.8792704045773" x2="786.8792704045773" y1="986.2090066373348" y2="769.4887374043465"/>
    <line stroke-linecap="round" x1="952.8985549509525" x2="952.8985549509525" y1="847.9125131070614" y2="1064.6327330768108"/>
    <line stroke-linecap="round" x1="952.8985549509525" x2="786.8792704045773" y1="847.9125131070614" y2="769.4887374043465"/>
    <line stroke-linecap="round" x1="786.8792704045773" x2="952.8985549509525" y1="986.2090066373348" y2="1064.6327330768108"/>
    <line stroke-linecap="round" x1="786.8792704045773" x2="911.4188177883625" y1="769.4887374043465" y2="717.2169924974442"/>
    <line stroke-linecap="round" x1="1077.4380266666412" x2="952.8985549509525" y1="1012.3608896434307" y2="1064.6327330768108"/>
    <line stroke-linecap="round" x1="952.8985549509525" x2="1077.4380266666412" y1="847.9125131070614" y2="795.6407189369202"/>
    <line stroke-linecap="round" x1="1077.4380266666412" x2="911.4188177883625" y1="647.8482434749603" y2="569.4245170354843"/>
    <line stroke-linecap="round" x1="1253.5637691915035" x2="1077.4380266666412" y1="573.9246153831482" y2="647.8482434749603"/>
    <line stroke-linecap="round" x1="911.4188177883625" x2="1087.5445603132248" y1="569.4245170354843" y2="495.5008889436722"/>
    <line stroke-linecap="round" x1="1087.5445603132248" x2="1253.5637691915035" y1="495.5008889436722" y2="573.9246153831482"/>
    <line stroke-linecap="round" x1="1077.4380266666412" x2="1077.4380266666412" y1="795.6407189369202" y2="647.8482434749603"/>
    <line stroke-linecap="round" x1="911.4188177883625" x2="911.4188177883625" y1="569.4245170354843" y2="717.2169924974442"/>
    <line stroke-linecap="round" x1="1087.5445603132248" x2="1087.5445603132248" y1="495.5008889436722" y2="496.5063516497612"/>
    <line stroke-linecap="round" x1="1253.5637691915035" x2="1253.5637691915035" y1="721.717090845108" y2="573.9246153831482"/>
  </g>
  <g fill="none" id="Line 1_dashed_lines" stroke="rgb(20%,20%,20%)" stroke-dasharray="10,10" stroke-linecap="butt" stroke-width="1.0">
    <line stroke-linecap="round" x1="1087.5445603132248" x2="911.4188177883625" y1="860.0135843753815" y2="933.9371632039547"/>
    <line stroke-linecap="round" x1="1253.5637691915035" x2="1087.5445603132248" y1="938.4373108148575" y2="860.0135843753815"/>
    <line stroke-linecap="round" x1="1077.4380266666412" x2="1077.4380266666412" y1="796.6440140604973" y2="904.0008289217949"/>
    <line stroke-linecap="round" x1="1077.4380266666412" x2="1077.4380266666412" y1="1007.3442662358284" y2="1012.3608896434307"/>
    <line stroke-linecap="round" x1="1087.5445603132248" x2="1087.5445603132248" y1="643.293364405632" y2="860.0135843753815"/>
    <line stroke-linecap="round" x1="1076.530841857195" x2="1075.6236570477486" y1="795.2121287584305" y2="794.7836371064186"/>
    <line stroke-linecap="round" x1="1074.7163965702057" x2="1073.8092117607594" y1="794.3550469279289" y2="793.9264567494392"/>
    <line stroke-linecap="round" x1="1072.902026951313" x2="1064.7371366620064" y1="793.4979650974274" y2="789.6410475969315"/>
    <line stroke-linecap="round" x1="1063.82995185256" x2="1062.9226913750172" y1="789.2125559449196" y2="788.7839657664299"/>
    <line stroke-linecap="round" x1="1062.0155065655708" x2="1054.757876753807" y1="788.3553755879402" y2="784.927048265934"/>
    <line stroke-linecap="round" x1="1053.8506162762642" x2="1045.6857259869576" y1="784.4985566139221" y2="780.6416391134262"/>
    <line stroke-linecap="round" x1="1044.7785411775112" x2="1043.8713563680649" y1="780.2130489349365" y2="779.7845572829247"/>
    <line stroke-linecap="round" x1="1042.964095890522" x2="1035.7064660787582" y1="779.355967104435" y2="775.9276397824287"/>
    <line stroke-linecap="round" x1="1034.799281269312" x2="1032.9848359823227" y1="775.499049603939" y2="774.6419677734375"/>
    <line stroke-linecap="round" x1="1032.0776511728764" x2="1026.6343909800053" y1="774.2134761214256" y2="771.6421321034431"/>
    <line stroke-linecap="round" x1="1025.7271305024624" x2="1024.819945693016" y1="771.2136404514313" y2="770.7850502729416"/>
    <line stroke-linecap="round" x1="1023.9127608835697" x2="1015.7478705942631" y1="770.3565586209297" y2="766.4996411204338"/>
    <line stroke-linecap="round" x1="1014.8406857848167" x2="1013.9334253072739" y1="766.0710509419441" y2="765.6425592899323"/>
    <line stroke-linecap="round" x1="1013.0262404978275" x2="1007.5829803049564" y1="765.2139691114426" y2="762.6427236199379"/>
    <line stroke-linecap="round" x1="1006.6757954955101" x2="1005.7685350179672" y1="762.2141334414482" y2="761.7856417894363"/>
    <line stroke-linecap="round" x1="1004.8613502085209" x2="1003.9541653990746" y1="761.3570516109467" y2="760.9285599589348"/>
    <line stroke-linecap="round" x1="1003.0469049215317" x2="996.6964599192142" y1="760.4999697804451" y2="757.5001341104507"/>
    <line stroke-linecap="round" x1="995.7892751097679" x2="994.8820903003216" y1="757.0716424584389" y2="756.6430522799492"/>
    <line stroke-linecap="round" x1="993.9748298227787" x2="986.7172000110149" y1="756.2145606279373" y2="752.7861347794533"/>
    <line stroke-linecap="round" x1="985.8099395334721" x2="984.9027547240257" y1="752.3576431274414" y2="751.9290529489517"/>
    <line stroke-linecap="round" x1="983.0883094370365" x2="977.6450492441654" y1="751.0719711184502" y2="748.5007256269455"/>
    <line stroke-linecap="round" x1="976.7378644347191" x2="975.8306796252728" y1="748.0721354484558" y2="747.6436437964439"/>
    <line stroke-linecap="round" x1="974.9234948158264" x2="967.6657893359661" y1="747.2150536179543" y2="743.786726295948"/>
    <line stroke-linecap="round" x1="966.7586045265198" x2="965.8513440489769" y1="743.3582346439362" y2="742.9296444654465"/>
    <line stroke-linecap="round" x1="964.0369744300842" x2="958.5937142372131" y1="742.0725626349449" y2="739.5013171434402"/>
    <line stroke-linecap="round" x1="957.6865294277668" x2="956.7792689502239" y1="739.0727269649506" y2="738.6442353129387"/>
    <line stroke-linecap="round" x1="955.8720841407776" x2="954.9648236632347" y1="738.215645134449" y2="737.7870549559593"/>
    <line stroke-linecap="round" x1="954.0576388537884" x2="946.8000090420246" y1="737.3585633039474" y2="733.9302359819412"/>
    <line stroke-linecap="round" x1="944.9855637550354" x2="939.5423035621643" y1="733.0731541514397" y2="730.5018101334572"/>
    <line stroke-linecap="round" x1="938.635118752718" x2="937.7279339432716" y1="730.0733184814453" y2="729.6447283029556"/>
    <line stroke-linecap="round" x1="936.8206734657288" x2="935.9134886562824" y1="729.2162366509438" y2="728.7876464724541"/>
    <line stroke-linecap="round" x1="935.0063038468361" x2="927.7485983669758" y1="728.3591548204422" y2="724.9307289719582"/>
    <line stroke-linecap="round" x1="925.9342287480831" x2="918.6765232682228" y1="724.0736471414566" y2="720.6453198194504"/>
    <line stroke-linecap="round" x1="917.7692627906799" x2="916.8620779812336" y1="720.2167296409607" y2="719.7882379889488"/>
    <line stroke-linecap="round" x1="915.9548931717873" x2="911.4188177883625" y1="719.3596478104591" y2="717.2169924974442"/>
    <line stroke-linecap="round" x1="1253.5637691915035" x2="1246.1868107914925" y1="721.717090845108" y2="724.813383936882"/>
    <line stroke-linecap="round" x1="1245.2646436989307" x2="1244.3425522744656" y1="725.2003959417343" y2="725.5874079465866"/>
    <line stroke-linecap="round" x1="1243.4204608500004" x2="1234.1991682648659" y1="725.9744199514389" y2="729.8448355793953"/>
    <line stroke-linecap="round" x1="1233.2770768404007" x2="1232.354909747839" y1="730.2318475842476" y2="730.6188595890999"/>
    <line stroke-linecap="round" x1="1231.4328183233738" x2="1222.2116014063358" y1="731.0058715939522" y2="734.8762872219086"/>
    <line stroke-linecap="round" x1="1221.289434313774" x2="1220.367342889309" y1="735.2632992267609" y2="735.6503112316132"/>
    <line stroke-linecap="round" x1="1219.4451757967472" x2="1211.1460503041744" y1="736.0373232364655" y2="739.5206283330917"/>
    <line stroke-linecap="round" x1="1209.301867455244" x2="1208.3797003626823" y1="740.2947508692741" y2="740.6817628741264"/>
    <line stroke-linecap="round" x1="1207.4576089382172" x2="1201.0027419626713" y1="741.0687748789787" y2="743.7780559659004"/>
    <line stroke-linecap="round" x1="1200.0805748701096" x2="1199.1584834456444" y1="744.1650679707527" y2="744.552079975605"/>
    <line stroke-linecap="round" x1="1197.3142249286175" x2="1196.3921335041523" y1="745.3262025117874" y2="745.7132145166397"/>
    <line stroke-linecap="round" x1="1195.4699664115906" x2="1189.0150994360447" y1="746.100226521492" y2="748.8095076084137"/>
    <line stroke-linecap="round" x1="1188.0930080115795" x2="1187.1708409190178" y1="749.196519613266" y2="749.5835316181183"/>
    <line stroke-linecap="round" x1="1185.326582401991" x2="1177.027456909418" y1="750.3576541543007" y2="753.840959250927"/>
    <line stroke-linecap="round" x1="1176.105365484953" x2="1175.1832740604877" y1="754.2279712557793" y2="754.6149832606316"/>
    <line stroke-linecap="round" x1="1174.261106967926" x2="1165.039890050888" y1="755.0020937919617" y2="758.8724108934402"/>
    <line stroke-linecap="round" x1="1164.1177229583263" x2="1163.1956315338612" y1="759.2594228982925" y2="759.6464349031448"/>
    <line stroke-linecap="round" x1="1162.2734644412994" x2="1153.0522475242615" y1="760.033545434475" y2="763.9038625359535"/>
    <line stroke-linecap="round" x1="1152.1301560997963" x2="1151.2079890072346" y1="764.2908745408058" y2="764.6778865456581"/>
    <line stroke-linecap="round" x1="1150.2858975827694" x2="1141.064604997635" y1="765.0649970769882" y2="768.9353141784668"/>
    <line stroke-linecap="round" x1="1140.1425135731697" x2="1139.2204221487045" y1="769.3223261833191" y2="769.7093381881714"/>
    <line stroke-linecap="round" x1="1138.2982550561428" x2="1129.0770381391048" y1="770.0964487195015" y2="773.9667658209801"/>
    <line stroke-linecap="round" x1="1128.1548710465431" x2="1127.232779622078" y1="774.3537778258324" y2="774.7407898306847"/>
    <line stroke-linecap="round" x1="1126.3106125295162" x2="1125.388521105051" y1="775.127801835537" y2="775.5149123668671"/>
    <line stroke-linecap="round" x1="1124.4664296805859" x2="1118.01156270504" y1="775.9019243717194" y2="778.611205458641"/>
    <line stroke-linecap="round" x1="1116.167304188013" x2="1115.2451370954514" y1="779.3852294683456" y2="779.7722414731979"/>
    <line stroke-linecap="round" x1="1114.3230456709862" x2="1113.4008785784245" y1="780.1592534780502" y2="780.5463640093803"/>
    <line stroke-linecap="round" x1="1112.4787871539593" x2="1106.0239201784134" y1="780.9333760142326" y2="783.6426571011543"/>
    <line stroke-linecap="round" x1="1105.1018287539482" x2="1103.2575702369213" y1="784.0296691060066" y2="784.8036931157112"/>
    <line stroke-linecap="round" x1="1102.3354031443596" x2="1101.4133117198944" y1="785.1907051205635" y2="785.5778156518936"/>
    <line stroke-linecap="round" x1="1100.4911446273327" x2="1094.0363533198833" y1="785.9648276567459" y2="788.6740102171898"/>
    <line stroke-linecap="round" x1="1093.1141862273216" x2="1091.2699277102947" y1="789.0611207485199" y2="789.8351447582245"/>
    <line stroke-linecap="round" x1="1090.3478362858295" x2="1089.4256691932678" y1="790.2221567630768" y2="790.6092672944069"/>
    <line stroke-linecap="round" x1="1088.5035777688026" x2="1082.0487107932568" y1="790.9962792992592" y2="793.7054618597031"/>
    <line stroke-linecap="round" x1="1081.126543700695" x2="1079.2822851836681" y1="794.0925723910332" y2="794.8665964007378"/>
    <line stroke-linecap="round" x1="1078.360193759203" x2="1077.4380266666412" y1="795.2536084055901" y2="795.6407189369202"/>
    <line stroke-linecap="round" x1="1253.5637691915035" x2="1254.4697433114052" y1="721.717090845108" y2="722.144991338253"/>
    <line stroke-linecap="round" x1="1466.4557318091393" x2="1253.5637691915035" y1="1039.0026955604553" y2="938.4373108148575"/>
    <line stroke-linecap="round" x1="911.4188177883625" x2="786.8792704045773" y1="933.9371632039547" y2="986.2090066373348"/>
    <line stroke-linecap="round" x1="1087.5445603132248" x2="1087.5445603132248" y1="496.5063516497612" y2="643.293364405632"/>
  </g>
  <g fill="none" id="Line 2_dashed_lines" stroke="rgb(0%,0%,0%)" stroke-linecap="round" stroke-width="4.0">
    <line stroke-linecap="round" x1="1467.3617815971375" x2="1467.3617815971375" y1="822.7103760838509" y2="1039.4306453168392"/>
    <line stroke-linecap="round" x1="1291.2359634041786" x2="1467.3617815971375" y1="1113.3542241454124" y2="1039.4306453168392"/>
    <line stroke-linecap="round" x1="1077.4380266666412" x2="1291.2359634041786" y1="1012.3608896434307" y2="1113.3542241454124"/>
    <line stroke-linecap="round" x1="1254.4697433114052" x2="1467.3617815971375" y1="722.144991338253" y2="822.7103760838509"/>
    <line stroke-linecap="round" x1="786.8792704045773" x2="786.8792704045773" y1="986.2090066373348" y2="769.4887374043465"/>
    <line stroke-linecap="round" x1="786.8792704045773" x2="952.8985549509525" y1="986.2090066373348" y2="1064.6327330768108"/>
    <line stroke-linecap="round" x1="786.8792704045773" x2="911.4188177883625" y1="769.4887374043465" y2="717.2169924974442"/>
    <line stroke-linecap="round" x1="1077.4380266666412" x2="952.8985549509525" y1="1012.3608896434307" y2="1064.6327330768108"/>
    <line stroke-linecap="round" x1="911.4188177883625" x2="1087.5445603132248" y1="569.4245170354843" y2="495.5008889436722"/>
    <line stroke-linecap="round" x1="1087.5445603132248" x2="1253.5637691915035" y1="495.5008889436722" y2="573.9246153831482"/>
    <line stroke-linecap="round" x1="911.4188177883625" x2="911.4188177883625" y1="569.4245170354843" y2="717.2169924974442"/>
    <line stroke-linecap="round" x1="1253.5637691915035" x2="1253.5637691915035" y1="721.717090845108" y2="573.9246153831482"/>
  </g>
  <g fill="none" id="Line 2_dashed_lines" stroke="rgb(0%,0%,0%)" stroke-dasharray="5,5" stroke-linecap="butt" stroke-width="4.0"/>
  <g id="Cube.003"/>
  <g fill="none" id="Line 1_dashed_lines" stroke="rgb(0%,0%,0%)" stroke-linecap="round" stroke-width="2.0">
    <line stroke-linecap="round" x1="2233.5089772343636" x2="2233.5089772343636" y1="1045.9651183784008" y2="1204.4919550716877"/>
    <line stroke-linecap="round" x1="2057.383310377598" x2="2057.383310377598" y1="1119.888746470213" y2="1120.89204159379"/>
    <line stroke-linecap="round" x1="2067.4896926879883" x2="2067.4896926879883" y1="967.5413426756859" y2="968.5446870625019"/>
    <line stroke-linecap="round" x1="2233.5089772343636" x2="2057.383310377598" y1="1045.9651183784008" y2="1119.888746470213"/>
    <line stroke-linecap="round" x1="1891.3640258312225" x2="2067.4896926879883" y1="1041.464970767498" y2="967.5413426756859"/>
    <line stroke-linecap="round" x1="2067.4896926879883" x2="2233.5089772343636" y1="967.5413426756859" y2="1045.9651183784008"/>
    <line stroke-linecap="round" x1="1662.763744711876" x2="1662.763744711876" y1="1354.133550837636" y2="1137.4132569730282"/>
    <line stroke-linecap="round" x1="1828.782877922058" x2="1662.763744711876" y1="1215.837081938982" y2="1137.4132569730282"/>
    <line stroke-linecap="round" x1="1662.763744711876" x2="1828.782877922058" y1="1354.133550837636" y2="1432.5573019087315"/>
    <line stroke-linecap="round" x1="1662.763744711876" x2="1663.689165532589" y1="1354.133550837636" y2="1353.7450609356165"/>
    <line stroke-linecap="round" x1="1891.3640258312225" x2="1662.763744711876" y1="1041.464970767498" y2="1137.4132569730282"/>
    <line stroke-linecap="round" x1="2132.58846950531" x2="2132.58846950531" y1="1359.3479661494493" y2="1576.0682107508183"/>
    <line stroke-linecap="round" x1="1828.782877922058" x2="2132.58846950531" y1="1215.837081938982" y2="1359.3479661494493"/>
    <line stroke-linecap="round" x1="1828.782877922058" x2="2132.58846950531" y1="1432.5573019087315" y2="1576.0682107508183"/>
    <line stroke-linecap="round" x1="2265.4669438004494" x2="2241.7026214003563" y1="1301.056918501854" y2="1313.5504453629255"/>
    <line stroke-linecap="round" x1="2241.7026214003563" x2="2265.4669438004494" y1="1530.2706776484847" y2="1517.7771507874131"/>
    <line stroke-linecap="round" x1="2282.391929626465" x2="2265.4669438004494" y1="1286.5219476521015" y2="1301.056918501854"/>
    <line stroke-linecap="round" x1="2265.4669438004494" x2="2282.391929626465" y1="1517.7771507874131" y2="1503.2421922534704"/>
    <line stroke-linecap="round" x1="2291.6288855075836" x2="2282.391929626465" y1="1270.6745548546314" y2="1286.5219476521015"/>
    <line stroke-linecap="round" x1="2282.391929626465" x2="2291.6288855075836" y1="1503.2421922534704" y2="1487.3947994560003"/>
    <line stroke-linecap="round" x1="2292.7144200205803" x2="2291.6288855075836" y1="1254.3091591000557" y2="1270.6745548546314"/>
    <line stroke-linecap="round" x1="2291.6288855075836" x2="2292.7144200205803" y1="1487.3947994560003" y2="1471.0294160172343"/>
    <line stroke-linecap="round" x1="2285.5945061445236" x2="2292.7144200205803" y1="1238.2466337382793" y2="1254.3091591000557"/>
    <line stroke-linecap="round" x1="2292.7144200205803" x2="2291.8769255280495" y1="1471.0294160172343" y2="1469.1397643834352"/>
    <line stroke-linecap="round" x1="2270.6258432865143" x2="2285.5945061445236" y1="1223.292186409235" y2="1238.2466337382793"/>
    <line stroke-linecap="round" x1="2248.5590589642525" x2="2270.6258432865143" y1="1210.1958991885185" y2="1223.292186409235"/>
    <line stroke-linecap="round" x1="2057.383310377598" x2="2248.5590589642525" y1="1119.888746470213" y2="1210.1958991885185"/>
    <line stroke-linecap="round" x1="2132.58846950531" x2="2241.7026214003563" y1="1576.0682107508183" y2="1530.2706776484847"/>
    <line stroke-linecap="round" x1="2241.7026214003563" x2="2132.58846950531" y1="1313.5504453629255" y2="1359.3479661494493"/>
  </g>
  <g fill="none" id="Line 1_dashed_lines" stroke="rgb(20%,20%,20%)" stroke-dasharray="10,10" stroke-linecap="butt" stroke-width="1.0">
    <line stroke-linecap="round" x1="2067.4896926879883" x2="1891.3640258312225" y1="1184.2615626454353" y2="1258.185215368867"/>
    <line stroke-linecap="round" x1="2233.5089772343636" x2="2067.4896926879883" y1="1262.6853629797697" y2="1184.2615626454353"/>
    <line stroke-linecap="round" x1="2233.5089772343636" x2="2233.5089772343636" y1="1204.4919550716877" y2="1262.6853629797697"/>
    <line stroke-linecap="round" x1="2057.383310377598" x2="2057.383310377598" y1="1120.89204159379" y2="1336.6089910715818"/>
    <line stroke-linecap="round" x1="2067.4896926879883" x2="2067.4896926879883" y1="968.5446870625019" y2="1184.2615626454353"/>
    <line stroke-linecap="round" x1="2057.383310377598" x2="2233.5089772343636" y1="1336.6089910715818" y2="1262.6853629797697"/>
    <line stroke-linecap="round" x1="1663.689165532589" x2="1891.3640258312225" y1="1353.7450609356165" y2="1258.185215368867"/>
    <line stroke-linecap="round" x1="2291.8769255280495" x2="2285.5945061445236" y1="1469.1397643834352" y2="1454.9668660238385"/>
    <line stroke-linecap="round" x1="2285.5945061445236" x2="2270.6258432865143" y1="1454.9668660238385" y2="1440.0124556422234"/>
    <line stroke-linecap="round" x1="2270.6258432865143" x2="2248.5590589642525" y1="1440.0124556422234" y2="1426.9161437898874"/>
    <line stroke-linecap="round" x1="2248.5590589642525" x2="2057.383310377598" y1="1426.9161437898874" y2="1336.6089910715818"/>
  </g>
  <g fill="none" id="Line 2_dashed_lines" stroke="rgb(0%,0%,0%)" stroke-linecap="round" stroke-width="4.0">
    <line stroke-linecap="round" x1="2233.5089772343636" x2="2233.5089772343636" y1="1045.9651183784008" y2="1204.4919550716877"/>
    <line stroke-linecap="round" x1="2057.383310377598" x2="2057.383310377598" y1="1119.888746470213" y2="1120.89204159379"/>
    <line stroke-linecap="round" x1="1891.3640258312225" x2="2067.4896926879883" y1="1041.464970767498" y2="967.5413426756859"/>
    <line stroke-linecap="round" x1="2067.4896926879883" x2="2233.5089772343636" y1="967.5413426756859" y2="1045.9651183784008"/>
    <line stroke-linecap="round" x1="1662.763744711876" x2="1662.763744711876" y1="1354.133550837636" y2="1137.4132569730282"/>
    <line stroke-linecap="round" x1="1662.763744711876" x2="1828.782877922058" y1="1354.133550837636" y2="1432.5573019087315"/>
    <line stroke-linecap="round" x1="1891.3640258312225" x2="1662.763744711876" y1="1041.464970767498" y2="1137.4132569730282"/>
    <line stroke-linecap="round" x1="1828.782877922058" x2="2132.58846950531" y1="1432.5573019087315" y2="1576.0682107508183"/>
    <line stroke-linecap="round" x1="2241.7026214003563" x2="2265.4669438004494" y1="1530.2706776484847" y2="1517.7771507874131"/>
    <line stroke-linecap="round" x1="2265.4669438004494" x2="2282.391929626465" y1="1517.7771507874131" y2="1503.2421922534704"/>
    <line stroke-linecap="round" x1="2282.391929626465" x2="2291.6288855075836" y1="1503.2421922534704" y2="1487.3947994560003"/>
    <line stroke-linecap="round" x1="2291.6288855075836" x2="2292.7144200205803" y1="1487.3947994560003" y2="1471.0294160172343"/>
    <line stroke-linecap="round" x1="2292.7144200205803" x2="2292.7144200205803" y1="1471.0294160172343" y2="1254.3091591000557"/>
    <line stroke-linecap="round" x1="2285.5945061445236" x2="2292.7144200205803" y1="1238.2466337382793" y2="1254.3091591000557"/>
    <line stroke-linecap="round" x1="2270.6258432865143" x2="2285.5945061445236" y1="1223.292186409235" y2="1238.2466337382793"/>
    <line stroke-linecap="round" x1="2248.5590589642525" x2="2270.6258432865143" y1="1210.1958991885185" y2="1223.292186409235"/>
    <line stroke-linecap="round" x1="2057.383310377598" x2="2248.5590589642525" y1="1119.888746470213" y2="1210.1958991885185"/>
    <line stroke-linecap="round" x1="2132.58846950531" x2="2241.7026214003563" y1="1576.0682107508183" y2="1530.2706776484847"/>
  </g>
  <g fill="none" id="Line 2_dashed_lines" stroke="rgb(0%,0%,0%)" stroke-dasharray="5,5" stroke-linecap="butt" stroke-width="4.0"/>
  <g id="Drawing"/>
  <g id="Titleblock"/>
</svg>
